<?xml version="1.0" encoding="UTF-8"?>
<svg id="Layer_1" data-name="Layer 1" xmlns="http://www.w3.org/2000/svg" viewBox="0 0 3275.24 517.23">
  <defs>
    <style>
      .cls-1 {
        fill: #010101;
      }

      .cls-1, .cls-2, .cls-3, .cls-4, .cls-5, .cls-6, .cls-7, .cls-8 {
        stroke-width: 0px;
      }

      .cls-2 {
        fill: #d9242a;
      }

      .cls-9, .cls-10 {
        stroke: #010101;
        stroke-width: 15px;
      }

      .cls-9, .cls-8 {
        fill: #fff;
      }

      .cls-3 {
        fill: #405eab;
      }

      .cls-4 {
        fill: #184893;
      }

      .cls-10 {
        fill: none;
      }

      .cls-5 {
        fill: #f37321;
      }

      .cls-6 {
        fill: #efa02f;
      }

      .cls-7 {
        fill: #f1ae1d;
      }
    </style>
  </defs>
  <g>
    <path class="cls-9" d="M7.5,7.5h780v500H7.5V7.5Z"/>
    <path class="cls-4" d="M300.7,356.23l33.36-195.76h53.36l-33.38,195.76h-53.33ZM546.81,164.69c-10.57-3.97-27.14-8.22-47.82-8.22-52.73,0-89.86,26.55-90.18,64.6-.3,28.13,26.51,43.82,46.75,53.18,20.77,9.6,27.75,15.72,27.65,24.28-.13,13.12-16.59,19.11-31.92,19.11-21.36,0-32.7-2.97-50.23-10.27l-6.88-3.11-7.49,43.82c12.46,5.47,35.51,10.2,59.44,10.45,56.09,0,92.5-26.25,92.92-66.89.2-22.27-14.02-39.21-44.8-53.19-18.65-9.06-30.07-15.1-29.95-24.27,0-8.14,9.67-16.84,30.56-16.84,17.45-.27,30.09,3.53,39.94,7.5l4.78,2.26,7.23-42.43ZM684.12,160.47h-41.23c-12.77,0-22.33,3.49-27.94,16.23l-79.24,179.4h56.03s9.16-24.12,11.23-29.42c6.12,0,60.55.08,68.34.08,1.6,6.85,6.49,29.33,6.49,29.33h49.51l-43.19-195.64h0ZM618.7,286.88c4.41-11.28,21.26-54.72,21.26-54.72-.31.52,4.38-11.33,7.07-18.68l3.61,16.88s10.22,46.73,12.35,56.53h-44.29ZM255.4,160.47l-52.24,133.5-5.57-27.13c-9.73-31.27-40.03-65.16-73.9-82.12l47.77,171.2,56.46-.06,84-195.39h-56.52"/>
    <path class="cls-7" d="M154.42,160.46h-86.04l-.68,4.07c66.94,16.2,111.23,55.36,129.62,102.42l-18.71-89.96c-3.23-12.4-12.6-16.1-24.19-16.53"/>
  </g>
  <g>
    <path class="cls-9" d="M834.25,8.5h780v500h-780V8.5Z"/>
    <path class="cls-2" d="M1283.26,258.5c0,99.14-80.37,179.5-179.51,179.5s-179.5-80.36-179.5-179.5,80.36-179.5,179.5-179.5,179.51,80.37,179.51,179.5"/>
    <path class="cls-6" d="M1344.74,79c-46.38,0-88.64,17.6-120.5,46.47-6.49,5.89-12.55,12.24-18.12,19h36.27c4.96,6.04,9.54,12.39,13.68,19.01h-63.64c-3.83,6.12-7.28,12.47-10.34,19.01h84.31c2.89,6.18,5.43,12.53,7.6,19h-99.51c-2.09,6.23-3.83,12.58-5.22,19.01h109.94c2.69,12.49,4.05,25.23,4.04,38.01,0,19.94-3.25,39.11-9.25,57.02h-99.51c2.16,6.48,4.7,12.82,7.6,19.01h84.32c-3.06,6.54-6.52,12.89-10.35,19.01h-63.62c4.15,6.62,8.72,12.97,13.68,19h36.26c-5.57,6.77-11.63,13.13-18.13,19.01,31.86,28.87,74.12,46.45,120.5,46.45,99.14,0,179.51-80.36,179.51-179.5s-80.37-179.5-179.51-179.5"/>
    <path class="cls-1" d="M1500.32,358.56c0-3.2,2.59-5.8,5.8-5.8s5.8,2.6,5.8,5.8-2.59,5.8-5.8,5.8-5.8-2.6-5.8-5.8ZM1506.11,362.97c2.43,0,4.41-1.97,4.41-4.41,0-2.43-1.97-4.4-4.4-4.4h0c-2.43,0-4.4,1.96-4.4,4.39h0c0,2.45,1.97,4.42,4.4,4.42,0,0,0,0,0,0h0ZM1505.33,361.11h-1.19v-5.1h2.15c.45,0,.91,0,1.3.25.41.28.65.77.65,1.28,0,.57-.34,1.1-.88,1.31l.94,2.25h-1.32l-.78-2.02h-.87v2.02ZM1505.33,358.22h.66c.25,0,.51.02.73-.1.2-.12.3-.36.3-.58,0-.21-.11-.4-.29-.52-.21-.13-.54-.1-.76-.1h-.63v1.3ZM1061.83,278.15c-2.05-.24-2.95-.3-4.35-.3-11.05,0-16.64,3.79-16.64,11.27,0,4.61,2.73,7.55,6.99,7.55,7.94,0,13.66-7.56,14-18.51h0ZM1076,311.15h-16.15l.37-7.68c-4.93,6.07-11.5,8.95-20.43,8.95-10.56,0-17.8-8.25-17.8-20.23,0-18.02,12.6-28.54,34.22-28.54,2.21,0,5.04.2,7.94.57.6-2.44.76-3.49.76-4.8,0-4.91-3.4-6.74-12.5-6.74-9.53-.11-17.4,2.27-20.62,3.33.2-1.23,2.7-16.66,2.7-16.66,9.71-2.85,16.12-3.92,23.32-3.92,16.73,0,25.6,7.51,25.58,21.71.03,3.8-.6,8.5-1.58,14.67-1.69,10.73-5.32,33.72-5.82,39.33h0ZM1013.84,311.15h-19.49l11.16-70-24.93,70h-13.28l-1.64-69.6-11.73,69.6h-18.24l15.24-91.06h28.02l1.7,50.97,17.09-50.97h31.17l-15.07,91.06ZM1368.81,278.15c-2.04-.24-2.94-.3-4.34-.3-11.04,0-16.63,3.79-16.63,11.27,0,4.61,2.73,7.55,6.98,7.55,7.94,0,13.66-7.56,13.99-18.51h0ZM1383,311.15h-16.15l.37-7.68c-4.93,6.07-11.5,8.95-20.42,8.95-10.57,0-17.8-8.25-17.8-20.23,0-18.02,12.59-28.54,34.21-28.54,2.21,0,5.04.2,7.93.57.6-2.44.76-3.49.76-4.8,0-4.91-3.39-6.74-12.5-6.74-9.53-.11-17.39,2.27-20.63,3.33.2-1.23,2.71-16.66,2.71-16.66,9.71-2.85,16.11-3.92,23.31-3.92,16.74,0,25.6,7.51,25.59,21.71.03,3.8-.6,8.5-1.58,14.67-1.68,10.73-5.32,33.72-5.81,39.33h0ZM1162.61,310.03c-5.33,1.68-9.49,2.4-14,2.4-9.96,0-15.4-5.73-15.4-16.27-.14-3.27,1.43-11.88,2.67-19.74,1.12-6.92,8.45-50.53,8.45-50.53h19.37l-2.26,11.21h11.7l-2.64,17.8h-11.74c-2.25,14.08-5.45,31.63-5.49,33.95,0,3.82,2.04,5.48,6.67,5.48,2.22,0,3.94-.23,5.25-.7l-2.58,16.4ZM1222,309.43c-6.65,2.03-13.08,3.02-19.88,3-21.68-.02-32.99-11.35-32.99-33.03,0-25.31,14.38-43.95,33.9-43.95,15.97,0,26.17,10.43,26.17,26.8,0,5.43-.7,10.73-2.39,18.21h-38.57c-1.3,10.74,5.57,15.22,16.84,15.22,6.93,0,13.19-1.43,20.14-4.66l-3.22,18.42ZM1211.11,265.53c.11-1.54,2.05-13.22-9.01-13.22-6.17,0-10.58,4.7-12.38,13.22h21.39ZM1087.69,260.51c0,9.37,4.54,15.83,14.84,20.68,7.89,3.71,9.11,4.81,9.11,8.17,0,4.62-3.48,6.7-11.19,6.7-5.81,0-11.22-.91-17.46-2.92,0,0-2.56,16.32-2.68,17.1,4.43.97,8.38,1.86,20.28,2.19,20.56,0,30.06-7.83,30.06-24.75,0-10.17-3.98-16.15-13.74-20.63-8.17-3.75-9.11-4.59-9.11-8.04,0-4,3.24-6.05,9.54-6.05,3.83,0,9.05.41,14,1.11l2.77-17.18c-5.05-.8-12.7-1.44-17.15-1.44-21.8,0-29.35,11.39-29.28,25.06M1316.78,237.39c5.41,0,10.46,1.42,17.41,4.92l3.19-19.76c-2.85-1.12-12.9-7.7-21.42-7.7-13.04,0-24.07,6.47-31.82,17.15-11.31-3.75-15.96,3.82-21.66,11.37l-5.06,1.18c.38-2.48.73-4.95.61-7.45h-17.9c-2.45,22.92-6.78,46.13-10.17,69.07l-.88,4.98h19.5c3.25-21.14,5.04-34.68,6.12-43.84l7.34-4.08c1.1-4.08,4.53-5.46,11.42-5.29-.93,5.01-1.39,10.09-1.38,15.18,0,24.23,13.07,39.31,34.05,39.31,5.4,0,10.04-.71,17.22-2.66l3.43-20.76c-6.46,3.18-11.76,4.68-16.56,4.68-11.33,0-18.18-8.36-18.18-22.18,0-20.05,10.2-34.11,24.75-34.11"/>
    <path class="cls-8" d="M1019.46,305.74h-19.49l11.17-69.99-24.93,69.99h-13.28l-1.64-69.59-11.73,69.59h-18.24l15.24-91.04h28.02l.79,56.36,18.9-56.36h30.27l-15.07,91.04Z"/>
    <path class="cls-1" d="M1481.77,220.1l-4.32,26.31c-5.33-7.01-11.05-12.09-18.61-12.09-9.83,0-18.78,7.46-24.64,18.43-8.16-1.69-16.6-4.56-16.6-4.56v.07c.65-6.13.92-9.88.86-11.15h-17.9c-2.44,22.92-6.77,46.13-10.16,69.07l-.89,4.98h19.49c2.63-17.1,4.65-31.29,6.13-42.55,6.66-6.02,9.99-11.27,16.72-10.92-2.98,7.21-4.72,15.5-4.72,24.02,0,18.51,9.37,30.73,23.53,30.73,7.14,0,12.62-2.46,17.97-8.17l-.91,6.88h18.43l14.84-91.04h-19.22ZM1457.39,294.04c-6.63,0-9.98-4.91-9.98-14.6,0-14.55,6.27-24.88,15.11-24.88,6.7,0,10.32,5.1,10.32,14.51,0,14.68-6.37,24.96-15.45,24.96h0Z"/>
    <path class="cls-8" d="M1067.44,272.76c-2.04-.24-2.95-.3-4.35-.3-11.05,0-16.63,3.79-16.63,11.27,0,4.6,2.73,7.55,6.98,7.55,7.95,0,13.67-7.56,14-18.51h0ZM1081.61,305.74h-16.15l.37-7.66c-4.92,6.05-11.5,8.95-20.42,8.95-10.57,0-17.8-8.25-17.8-20.23,0-18.03,12.59-28.54,34.22-28.54,2.21,0,5.04.2,7.94.57.6-2.44.76-3.49.76-4.81,0-4.91-3.39-6.73-12.5-6.73-9.54-.11-17.4,2.27-20.63,3.32.2-1.23,2.7-16.64,2.7-16.64,9.71-2.86,16.12-3.93,23.32-3.93,16.74,0,25.6,7.52,25.59,21.7.03,3.82-.6,8.51-1.58,14.68-1.69,10.72-5.32,33.72-5.81,39.32h0ZM1342.99,217.15l-3.19,19.77c-6.95-3.5-12-4.92-17.41-4.92-14.55,0-24.75,14.06-24.75,34.11,0,13.82,6.86,22.18,18.18,22.18,4.8,0,10.1-1.49,16.55-4.67l-3.42,20.75c-7.18,1.96-11.82,2.67-17.23,2.67-20.98,0-34.05-15.08-34.05-39.31,0-32.55,18.06-55.3,43.89-55.3,8.51,0,18.56,3.61,21.42,4.73M1374.44,272.76c-2.04-.24-2.94-.3-4.35-.3-11.04,0-16.63,3.79-16.63,11.27,0,4.6,2.73,7.55,6.98,7.55,7.94,0,13.66-7.56,14-18.51h0ZM1388.61,305.74h-16.15l.37-7.66c-4.92,6.05-11.5,8.95-20.42,8.95-10.56,0-17.8-8.25-17.8-20.23,0-18.03,12.6-28.54,34.21-28.54,2.21,0,5.04.2,7.94.57.6-2.44.76-3.49.76-4.81,0-4.91-3.39-6.73-12.49-6.73-9.53-.11-17.4,2.27-20.63,3.32.2-1.23,2.7-16.64,2.7-16.64,9.71-2.86,16.12-3.93,23.32-3.93,16.74,0,25.6,7.52,25.58,21.7.03,3.82-.6,8.51-1.58,14.68-1.68,10.72-5.32,33.72-5.81,39.32h0ZM1168.22,304.62c-5.34,1.68-9.5,2.41-14,2.41-9.96,0-15.4-5.73-15.4-16.27-.14-3.28,1.44-11.88,2.67-19.74,1.12-6.93,8.45-50.53,8.45-50.53h19.37l-2.26,11.21h9.94l-2.65,17.79h-9.98c-2.25,14.09-5.46,31.62-5.5,33.95,0,3.83,2.04,5.48,6.67,5.48,2.22,0,3.94-.22,5.25-.69l-2.58,16.39ZM1227.62,304.03c-6.65,2.03-13.08,3.01-19.88,3-21.68-.02-32.99-11.35-32.99-33.03,0-25.32,14.38-43.95,33.9-43.95,15.97,0,26.17,10.43,26.17,26.8,0,5.43-.7,10.73-2.38,18.21h-38.57c-1.31,10.74,5.57,15.22,16.84,15.22,6.93,0,13.19-1.43,20.14-4.68l-3.22,18.43ZM1216.72,260.12c.12-1.54,2.06-13.22-9.01-13.22-6.17,0-10.58,4.72-12.38,13.22h21.39ZM1093.3,255.11c0,9.37,4.54,15.82,14.84,20.68,7.89,3.71,9.11,4.81,9.11,8.17,0,4.62-3.48,6.7-11.19,6.7-5.82,0-11.23-.91-17.47-2.92,0,0-2.55,16.32-2.67,17.1,4.42.97,8.38,1.85,20.27,2.19,20.57,0,30.06-7.83,30.06-24.75,0-10.18-3.97-16.15-13.74-20.64-8.17-3.76-9.11-4.58-9.11-8.05,0-4,3.25-6.06,9.54-6.06,3.82,0,9.05.42,14,1.12l2.77-17.18c-5.04-.8-12.69-1.44-17.15-1.44-21.8,0-29.35,11.38-29.28,25.07M1491.75,305.74h-18.44l.92-6.89c-5.35,5.72-10.83,8.18-17.97,8.18-14.17,0-23.53-12.21-23.53-30.73,0-24.63,14.52-45.39,31.71-45.39,7.56,0,13.28,3.09,18.6,10.1l4.33-26.31h19.22l-14.84,91.04ZM1463.01,288.64c9.08,0,15.45-10.28,15.45-24.95,0-9.4-3.63-14.51-10.33-14.51-8.84,0-15.11,10.32-15.11,24.88,0,9.69,3.36,14.59,9.99,14.59ZM1406.17,231.71c-2.44,22.92-6.77,46.13-10.16,69.06l-.89,4.98h19.49c6.97-45.27,8.66-54.12,19.59-53.01,1.74-9.27,4.98-17.38,7.4-21.48-8.16-1.7-12.72,2.91-18.69,11.68.47-3.79,1.33-7.47,1.16-11.23h-17.9ZM1245.75,231.71c-2.45,22.92-6.78,46.13-10.17,69.06l-.89,4.98h19.5c6.96-45.27,8.65-54.12,19.57-53.01,1.75-9.27,4.99-17.38,7.4-21.48-8.15-1.7-12.72,2.91-18.68,11.68.47-3.79,1.32-7.47,1.16-11.23h-17.9ZM1500.32,299.95c0-3.2,2.59-5.8,5.78-5.8h.01c3.2,0,5.79,2.59,5.8,5.78v.02c0,3.2-2.59,5.8-5.8,5.8-3.2,0-5.79-2.6-5.8-5.8h0ZM1506.11,304.35c2.43,0,4.4-1.97,4.4-4.4h0c0-2.44-1.97-4.41-4.4-4.41h0c-2.43,0-4.41,1.97-4.41,4.41,0,2.43,1.97,4.4,4.41,4.4h0ZM1505.33,302.48h-1.19v-5.08h2.15c.45,0,.91,0,1.3.25.42.28.65.77.65,1.27,0,.58-.34,1.11-.89,1.32l.94,2.24h-1.32l-.78-2.01h-.87v2.01ZM1505.33,299.6h.65c.25,0,.51.02.73-.1.2-.12.3-.36.3-.59,0-.21-.11-.4-.29-.52-.2-.12-.54-.08-.76-.08h-.63v1.3Z"/>
  </g>
  <g>
    <path class="cls-8" d="M1660.99,7.5h780v500h-780V7.5Z"/>
    <path class="cls-3" d="M2236.6,152.61l-15.09,35.04h30.27l-15.17-35.04ZM2062.45,174.32c2.85-1.42,4.52-4.51,4.52-8.36s-1.76-6.49-4.6-7.77c-2.59-1.42-6.58-1.58-10.4-1.58h-27v19.52h26.64c4.27,0,7.83-.06,10.85-1.81ZM1716.48,152.61l-14.92,35.04h29.93l-15.01-35.04ZM2411.18,377.08h-42.34v-18.85h42.17c4.18,0,7.11-.52,8.87-2.18,1.67-1.47,2.61-3.55,2.59-5.73,0-2.56-1.06-4.6-2.68-5.81-1.59-1.34-3.91-1.95-7.73-1.95-20.59-.67-46.27.61-46.27-27.21,0-12.75,8.45-26.17,31.46-26.17h43.68v-17.49h-40.58c-12.25,0-21.14,2.81-27.44,7.18v-7.18h-60.02c-9.6,0-20.86,2.28-26.19,7.18v-7.18h-107.19v7.18c-8.53-5.9-22.92-7.18-29.57-7.18h-70.7v7.18c-6.75-6.26-21.76-7.18-30.9-7.18h-79.13l-18.1,18.77-16.96-18.77h-118.2v122.68h115.97l18.65-19.08,17.58,19.08,71.48.06v-28.86h7.03c9.48.15,20.67-.22,30.54-4.31v33.11h58.96v-31.98h2.84c3.63,0,3.99.15,3.99,3.62v28.35h179.12c11.37,0,23.26-2.79,29.84-7.85v7.85h56.82c11.82,0,23.37-1.59,32.15-5.65v-22.85c-5.32,7.46-15.71,11.24-29.75,11.24h0ZM2047.6,348.11h-27.36v29.49h-42.62l-27-29.1-28.06,29.1h-86.85v-87.91h88.19l26.98,28.82,27.89-28.82h70.06c17.4,0,36.95,4.62,36.95,28.96s-19.02,29.46-38.18,29.46h0ZM2179.16,344.13c3.1,4.29,3.54,8.3,3.63,16.05v17.43h-22.02v-11c0-5.29.53-13.12-3.54-17.21-3.2-3.15-8.09-3.9-16.09-3.9h-23.43v32.11h-22.03v-87.91h50.62c11.11,0,19.19.47,26.38,4.15,6.92,4.01,11.27,9.49,11.27,19.52,0,14.03-9.77,21.19-15.54,23.39,4.88,1.73,8.87,4.82,10.74,7.38h0ZM2269.74,307.87h-51.35v15.98h50.09v17.94h-50.09v17.49l51.35.08v18.24h-73.18v-87.91h73.18v18.18ZM2326.08,377.6h-42.71v-18.85h42.53c4.16,0,7.11-.53,8.96-2.18,1.51-1.36,2.59-3.34,2.59-5.73,0-2.56-1.17-4.6-2.68-5.82-1.68-1.34-3.99-1.95-7.81-1.95-20.51-.67-46.19.61-46.19-27.21,0-12.75,8.36-26.17,31.35-26.17h43.96v18.71h-40.22c-3.99,0-6.58.15-8.78,1.59-2.41,1.42-3.29,3.54-3.29,6.32,0,3.32,2.04,5.57,4.8,6.55,2.31.77,4.8,1,8.53,1l11.8.31c11.9.27,20.07,2.25,25.04,7.07,4.27,4.23,6.56,9.58,6.56,18.62,0,18.91-12.34,27.74-34.45,27.74h0ZM2156.02,309.29c-2.65-1.51-6.56-1.59-10.46-1.59h-27v19.74h26.64c4.27,0,7.89-.14,10.82-1.81,2.84-1.65,4.54-4.68,4.54-8.44s-1.7-6.48-4.54-7.91h0ZM2401.01,307.7c-3.99,0-6.64.14-8.87,1.59-2.31,1.43-3.2,3.54-3.2,6.33,0,3.31,1.95,5.57,4.79,6.55,2.32.77,4.8,1,8.45,1l11.89.3c11.99.29,20,2.26,24.88,7.08.89.67,1.42,1.42,2.03,2.17v-25.01h-39.97ZM2048.36,307.7h-28.59v22.39h28.34c8.42,0,13.66-4.01,13.67-11.61,0-7.69-5.5-10.78-13.41-10.78ZM1857.55,307.7v15.98h48.14v17.94h-48.14v17.49h53.91l25.05-25.79-23.98-25.62h-54.97ZM1998.32,369.18v-70.48l-33.66,34.67,33.66,35.81ZM1859.39,228.03v15.15h183.19l-.08-32.05h3.55c2.48.08,3.2.3,3.2,4.23v27.82h94.75v-7.46c7.64,3.92,19.53,7.46,35.17,7.46h39.86l8.53-19.52h18.91l8.34,19.52h76.81v-18.54l11.63,18.54h61.55v-122.58h-60.91v14.48l-8.53-14.48h-62.51v14.48l-7.83-14.48h-84.43c-14.14,0-26.55,1.89-36.59,7.16v-7.16h-58.27v7.16c-6.39-5.43-15.09-7.16-24.76-7.16h-212.87l-14.28,31.66-14.67-31.66h-67.05v14.48l-7.37-14.48h-57.18l-26.55,58.28v46.62l39.26-87.89h32.58l37.29,83.22v-83.22h35.79l28.7,59.62,26.36-59.62h36.51v87.89h-22.48l-.08-68.84-31.8,68.84h-19.25l-31.88-68.9v68.9h-44.6l-8.43-19.6h-45.65l-8.51,19.6h-23.81v17.68h37.47l8.45-19.52h18.91l8.43,19.52h73.71v-14.93l6.58,14.99h38.27l6.58-15.21h0ZM2148.06,147.85c7.08-7.01,18.19-10.25,33.3-10.25h21.23v18.83h-20.78c-8,0-12.52,1.14-16.87,5.21-3.74,3.7-6.3,10.7-6.3,19.91s1.95,16.21,6.03,20.64c3.38,3.48,9.51,4.53,15.28,4.53h9.85l30.9-69.12h32.85l37.12,83.13v-83.13h33.39l38.54,61.21v-61.21h22.46v87.89h-31.07l-41.56-65.97v65.97h-44.66l-8.53-19.6h-45.55l-8.28,19.6h-25.66c-10.66,0-24.15-2.26-31.79-9.72-7.71-7.46-11.71-17.57-11.71-33.55,0-13.04,2.39-24.95,11.82-34.37h0ZM2102.96,137.6h22.37v87.89h-22.37v-87.89ZM2002.09,137.6h50.43c11.2,0,19.46.29,26.55,4.21,6.94,3.93,11.1,9.66,11.1,19.46,0,14.01-9.76,21.25-15.45,23.43,4.8,1.75,8.9,4.84,10.85,7.4,3.1,4.37,3.63,8.28,3.63,16.13v17.27h-22.11l-.08-11.08c0-5.29.53-12.9-3.46-17.12-3.2-3.09-8.09-3.76-15.98-3.76h-23.54v31.97h-21.93v-87.89ZM1913.7,137.6h73.25v18.3h-51.32v15.84h50.09v18.02h-50.09v17.55h51.32v18.18h-73.25v-87.89Z"/>
    <path class="cls-10" d="M1660.99,7.5h780v500h-780V7.5Z"/>
  </g>
  <g>
    <path class="cls-9" d="M2487.74,9.73h780v500h-780V9.73Z"/>
    <path class="cls-5" d="M2897.15,206.99c30.94,0,56.02,23.58,56.02,52.71v.03c0,29.13-25.08,52.74-56.02,52.74s-56.02-23.61-56.02-52.74v-.03c0-29.13,25.08-52.71,56.02-52.71h0Z"/>
    <path class="cls-1" d="M2809.17,207.67c8.84,0,16.25,1.79,25.27,6.09v22.75c-8.54-7.86-15.95-11.15-25.76-11.15-19.27,0-34.41,15.01-34.41,34.05,0,20.07,14.68,34.2,35.37,34.2,9.31,0,16.59-3.12,24.8-10.86v22.76c-9.34,4.14-16.91,5.77-25.76,5.77-31.28,0-55.58-22.6-55.58-51.74,0-28.83,24.95-51.88,56.07-51.88h0ZM2712.05,208.29c11.55,0,22.11,3.72,30.94,10.99l-10.75,13.25c-5.35-5.65-10.41-8.03-16.56-8.03-8.85,0-15.3,4.74-15.3,10.99,0,5.35,3.62,8.19,15.94,12.48,23.36,8.04,30.29,15.18,30.29,30.93,0,19.19-14.98,32.55-36.32,32.55-15.63,0-26.99-5.8-36.46-18.87l13.27-12.03c4.73,8.61,12.62,13.22,22.42,13.22,9.16,0,15.95-5.95,15.95-13.98,0-4.16-2.06-7.73-6.16-10.26-2.07-1.2-6.16-2.98-14.2-5.65-19.29-6.54-25.91-13.53-25.91-27.19,0-16.23,14.21-28.41,32.85-28.41h0ZM2946.77,210.02h22.44l28.08,66.59,28.45-66.59h22.27l-45.49,101.69h-11.05l-44.69-101.69ZM2645.56,210.17h20.54v99.14h-20.54v-99.14ZM3057.29,210.17h58.25v16.8h-37.73v22.01h36.34v16.79h-36.34v26.76h37.73v16.79h-58.25v-99.14ZM3172.88,267.55c15.47-2.96,23.98-12.93,23.98-28.1,0-18.56-13.58-29.27-37.27-29.27h-30.45v99.14h20.52v-39.83h2.68l28.43,39.83h25.26l-33.15-41.77ZM3155.67,255.81h-6v-30.02h6.33c12.79,0,19.74,5.05,19.74,14.7,0,9.97-6.95,15.33-20.07,15.33h0ZM2579.58,210.17h-30.15v99.14h29.99c15.95,0,27.46-3.54,37.57-11.45,12.01-9.36,19.12-23.47,19.12-38.06,0-29.26-23.22-49.64-56.53-49.64ZM2603.57,284.65c-6.45,5.48-14.84,7.88-28.11,7.88h-5.51v-65.56h5.51c13.27,0,21.32,2.24,28.11,8.02,7.1,5.96,11.38,15.18,11.38,24.68,0,9.51-4.27,19.02-11.38,24.98h0Z"/>
  </g>
</svg>